<svg width="151" height="42" viewBox="0 0 151 42" fill="none" xmlns="http://www.w3.org/2000/svg">
<path d="M50.6822 12.8362L48.4969 15.0806V18.6047H45.9375V4.82344H48.4969V11.8912L55.3088 4.82344H58.1831L52.395 10.9856L58.5375 18.6047H55.545L50.6822 12.8362Z" fill="#F7F6F5"/>
<path d="M73.5919 4.82344L67.5872 18.6047H65.0672L59.0428 4.82344H61.8187L66.4059 15.4547L71.0325 4.82344H73.5919Z" fill="#F7F6F5"/>
<path d="M75.2194 4.82344H77.7787V18.6047H75.2194V4.82344Z" fill="#F7F6F5"/>
<path d="M84.0262 6.98907H79.4587V4.82344H91.1531V6.98907H86.5856V18.6047H84.0262V6.98907Z" fill="#F7F6F5"/>
<path d="M101.876 18.6047L99.0609 14.5688C98.8837 14.5884 98.7066 14.5884 98.5294 14.5884H95.4187V18.6047H92.8594V4.82344H98.5294C102.152 4.82344 104.396 6.67407 104.396 9.72563C104.396 11.8125 103.333 13.3481 101.463 14.0766L104.633 18.6047H101.876ZM98.4113 6.98907H95.4187V12.4819H98.4113C100.656 12.4819 101.817 11.4581 101.817 9.72563C101.817 7.99313 100.656 6.98907 98.4113 6.98907Z" fill="#F7F6F5"/>
<path d="M116.616 15.4153H109.725L108.367 18.6047H105.728L111.93 4.82344H114.45L120.671 18.6047H117.994L116.616 15.4153ZM115.769 13.4072L113.17 7.38282L110.591 13.4072H115.769Z" fill="#F7F6F5"/>
<path d="M133.757 4.82344L127.752 18.6047H125.232L119.208 4.82344H121.984L126.571 15.4547L131.198 4.82344H133.757Z" fill="#F7F6F5"/>
<path d="M147.63 4.82344V18.6047H145.523L137.924 9.27282V18.6047H135.384V4.82344H137.491L145.09 14.1553V4.82344H147.63Z" fill="#F7F6F5"/>
<path d="M58.1831 23.1984V36.9797H55.6238V31.0734H48.4969V36.9797H45.9375V23.1984H48.4969V28.8881H55.6238V23.1984H58.1831Z" fill="#F7F6F5"/>
<path d="M60.7425 30.0891C60.7425 26.0138 63.8925 23.0016 68.1647 23.0016C72.4369 23.0016 75.5869 25.9941 75.5869 30.0891C75.5869 34.1841 72.4369 37.1766 68.1647 37.1766C63.8925 37.1766 60.7425 34.1644 60.7425 30.0891ZM73.0078 30.0891C73.0078 27.2738 70.9406 25.246 68.1647 25.246C65.3887 25.246 63.3216 27.2738 63.3216 30.0891C63.3216 32.9044 65.3887 34.9322 68.1647 34.9322C70.9406 34.9322 73.0078 32.9044 73.0078 30.0891Z" fill="#F7F6F5"/>
<path d="M80.5941 25.3641H76.0266V23.1984H87.7209V25.3641H83.1534V36.9797H80.5941V25.3641Z" fill="#F7F6F5"/>
<path d="M99.7631 34.8337V36.9797H89.4272V23.1984H99.4875V25.3444H91.9866V28.9275H98.6409V31.0341H91.9866V34.8337H99.7631Z" fill="#F7F6F5"/>
<path d="M102.382 23.1984H104.941V34.8141H112.147V36.9797H102.382V23.1984Z" fill="#F7F6F5"/>
<path d="M39.375 2.625V33.9675L28.5666 39.375H2.625V8.68875L14.7459 2.625H39.375ZM40.6875 1.3125H14.4375L1.3125 7.875V40.6875H28.875L40.6875 34.7812V1.3125Z" fill="#F7F6F5"/>
<path d="M8.18344 40.1756L24.8981 29.295L39.9919 24.6028" stroke="#F7F6F5" stroke-miterlimit="10"/>
<path d="M21.9713 30.7912L19.32 27.6019V25.935" stroke="#F7F6F5" stroke-miterlimit="10"/>
<path d="M22.3191 24.6684L22.0697 27.0506L24.8259 29.0784" stroke="#F7F6F5" stroke-miterlimit="10"/>
<path d="M36.5072 28.7175L28.8291 28.0744" stroke="#F7F6F5" stroke-miterlimit="10"/>
<path d="M33.9609 13.7287L36.5072 13.2628L34.6762 11.7797H31.9659" stroke="#F7F6F5" stroke-miterlimit="10"/>
<path d="M24.7341 12.3966L27.3525 10.5656H30.7388L33.9609 13.7287L31.5656 16.5637L24.7341 12.3966Z" stroke="#F7F6F5" stroke-miterlimit="10"/>
<path d="M25.9481 13.1381L19.32 14.0044L14.7066 16.1241L10.7559 19.3856L13.4794 20.0222L14.0766 24.6553L16.7803 23.7366L17.4694 25.935H20.4488L23.9269 23.7825L28.2384 20.8031L29.3475 17.0953L30.9028 16.1634" stroke="#F7F6F5" stroke-miterlimit="10"/>
<path d="M13.9322 23.5266L11.0775 25.935L8.18344 30.1941L5.32875 29.82L7.455 26.8734L5.93906 25.6397L9.23344 23.4806L7.75688 22.5159L9.72563 21.1575L13.4794 20.0222" stroke="#F7F6F5" stroke-miterlimit="10"/>
<path d="M28.2384 20.8031L19.32 14.0044" stroke="#F7F6F5" stroke-miterlimit="10"/>
<path d="M14.7066 16.1241L22.3191 24.6684" stroke="#F7F6F5" stroke-miterlimit="10"/>
<path d="M14.7066 16.1241L16.7803 23.7366" stroke="#F7F6F5" stroke-miterlimit="10"/>
<path d="M28.2384 20.8031L14.7066 16.1241" stroke="#F7F6F5" stroke-miterlimit="10"/>
<path d="M27.3525 10.5656L31.5656 16.5637" stroke="#F7F6F5" stroke-miterlimit="10"/>
<path d="M7.455 26.8734L11.0775 25.935" stroke="#F7F6F5" stroke-miterlimit="10"/>
<path d="M9.23343 23.4806L13.9322 23.5266" stroke="#F7F6F5" stroke-miterlimit="10"/>
</svg>
